<?xml version="1.0" encoding="UTF-8" standalone="no"?>
<svg
   xmlns:dc="http://purl.org/dc/elements/1.1/"
   xmlns:cc="http://creativecommons.org/ns#"
   xmlns:rdf="http://www.w3.org/1999/02/22-rdf-syntax-ns#"
   xmlns:svg="http://www.w3.org/2000/svg"
   xmlns="http://www.w3.org/2000/svg"
   version="1.1"
   width="390"
   height="76.000031"
   viewBox="0 0 390.00002 76.000031"
   id="svg42">
  <metadata
     id="metadata48">
    <rdf:RDF>
      <cc:Work
         rdf:about="">
        <dc:format>image/svg+xml</dc:format>
        <dc:type
           rdf:resource="http://purl.org/dc/dcmitype/StillImage" />
        <dc:title></dc:title>
      </cc:Work>
    </rdf:RDF>
  </metadata>
  <defs
     id="defs46" />
  <g
     enable-background="new"
     id="g40"
     transform="translate(-137.46687,-171.11419)">
    <g
       id="Layer-1"
       data-name="Layer">
      <path
         d="m 443.69266,224.60783 v -0.0192 0.0164 z"
         fill="#00aeef"
         id="path2"
         style="stroke-width:0.685687" />
      <clipPath
         id="cp0">
        <path
           transform="matrix(1,0,0,-1,0,595.276)"
           d="M 0,595.276 H 841.89 V 0 H 0 Z"
           id="path4" />
      </clipPath>
      <g
         clip-path="url(#cp0)"
         id="g37">
        <path
           d="m 514.29359,196.0005 h 12.54187 v -12.42875 h -12.54187 v -12.45686 h -12.42532 l -0.0107,51.41412 c 0.22216,13.56973 11.28297,24.4742 24.88973,24.49957 v -12.41709 c -6.86715,-0.0198 -12.45411,-5.60342 -12.45411,-12.49321 v -0.0466 z"
           fill="#00aeef"
           id="path7"
           style="stroke-width:0.685687" />
        <path
           d="m 471.37724,234.28778 c -0.0198,0 -0.0877,0.004 -0.0877,0.004 -6.86989,-0.024 -12.45002,-5.60411 -12.45002,-12.49046 v -0.009 l -0.0356,-14.3322 h -0.0391 v -0.008 h 0.0391 c 0.0151,-6.88428 5.61577,-12.46371 12.48566,-12.46371 0.0233,0 0.0446,0.001 0.0589,0.001 v 0.005 c 6.8884,0.0218 12.44863,5.61029 12.44863,12.49457 v 0.0473 c 0,0 12.40748,-0.0275 12.40748,-0.0473 0,-1.93433 -0.20913,-3.81859 -0.63631,-5.6288 -2.5391,-11.02926 -12.41983,-19.25612 -24.2198,-19.27944 v -0.008 h -0.0589 c -13.70619,0 -24.83076,11.09713 -24.90481,24.79235 h -0.012 v 0.0932 h -10e-4 l 0.009,14.81082 c 0.22695,13.54505 11.31314,24.40769 24.90412,24.43786 0,0 0.0734,-0.007 0.0932,-0.007 13.74046,0 24.84172,-10.81808 24.8664,-24.55649 h -12.41093 c -0.0246,6.8891 -5.57875,12.14214 -12.45549,12.14214"
           fill="#00aeef"
           id="path9"
           style="stroke-width:0.685687" />
        <path
           d="m 322.51937,182.91389 h -0.008 -0.004 c -13.67465,0.0343 -24.84788,11.11566 -24.94114,24.77796 l -0.008,38.18039 12.47194,-0.008 c 0,0 0.0295,-38.01718 0.0295,-38.03638 0,-6.88566 5.56845,-12.47125 12.45137,-12.49525 6.88017,0.024 12.44519,5.60959 12.44519,12.49525 0,0.0192 0.035,38.03638 0.035,38.03638 l 12.46371,0.008 -0.005,-38.18039 c -0.0857,-13.6623 -11.26035,-24.74366 -24.93155,-24.77796"
           fill="#696a6d"
           id="path11"
           style="stroke-width:0.685687" />
        <path
           d="m 232.05802,183.41946 -16.4551,45.12707 -16.4743,-44.98307 h -13.18025 l 21.23775,58.00083 c 0,0 1.17527,2.99026 3.92212,4.34586 1.32683,0.76524 2.85932,1.20407 4.49468,1.20407 1.67651,0 3.24604,-0.46489 4.59409,-1.26167 2.7311,-1.37206 3.82545,-4.29924 3.82545,-4.29924 l 21.22199,-58.13385 z"
           fill="#696a6d"
           id="path13"
           style="stroke-width:0.685687" />
        <path
           d="m 163.11076,182.8426 c 0,0 -0.0253,0.012 -0.0411,0.012 -13.67463,0 -24.80676,11.05119 -24.94388,24.6895 l -0.009,-0.0261 c 0,0 -0.0185,13.48196 -0.0185,13.50048 0,13.74252 11.12664,24.80881 24.86299,24.83487 l 18.29204,0.012 v -12.44452 l -18.7878,-0.008 c -6.65321,-0.28936 -11.96249,-5.7584 -11.96249,-12.47606 0,-0.012 0.004,-0.026 0.004,-0.0384 h -0.0246 l -0.004,-13.26048 c 0.0212,-6.88086 5.7049,-12.36634 12.59263,-12.36634 0.0157,0 0.035,-0.012 0.035,-0.012 6.8788,0.0268 12.4404,5.67405 12.45617,12.55286 l -12.07013,3.17608 2.39716,9.09358 0.76591,2.92788 15.21606,-4.00647 c 0.75289,-0.22559 5.29693,-1.0875 5.93874,-5.74879 0.63082,-4.57421 -0.012,-8.34548 -0.012,-8.34548 -1.44817,-12.3643 -11.93986,-22.03933 -24.68608,-22.06608"
           fill="#696a6d"
           id="path15"
           style="stroke-width:0.685687" />
        <path
           d="m 267.94005,182.8426 c 0,0 -0.0281,0.012 -0.0438,0.012 -13.67669,0 -24.80196,11.05119 -24.93841,24.6895 l -0.0138,-0.0261 c 0,0 -0.0212,13.48196 -0.0212,13.50048 0,13.74252 11.12868,24.80881 24.8664,24.83487 l 18.29479,0.012 v -12.44452 l -18.79671,-0.008 c -6.64704,-0.28936 -11.95289,-5.7584 -11.95289,-12.47606 0,-0.012 0.004,-0.026 0.004,-0.0384 h -0.0323 l -0.008,-13.26048 c 0.024,-6.88086 5.70628,-12.36634 12.59742,-12.36634 0.012,0 0.0404,-0.012 0.0404,-0.012 6.87263,0.0268 12.43629,5.67405 12.45205,12.55286 l -12.06876,3.17608 2.39167,9.09358 0.77277,2.92788 15.21331,-4.00647 c 0.74672,-0.22559 5.2935,-1.0875 5.93807,-5.74879 0.62808,-4.57421 -0.008,-8.34548 -0.008,-8.34548 -1.44886,-12.3643 -11.94945,-22.03933 -24.68812,-22.06608"
           fill="#696a6d"
           id="path17"
           style="stroke-width:0.685687" />
        <path
           d="m 401.87649,223.03862 v -6.97617 h -12.40885 v 6.10945 h -0.0212 c -0.0185,6.77801 -5.44503,12.27996 -12.18259,12.44589 v -0.007 c -6.87401,-0.0198 -12.45617,-5.60342 -12.45617,-12.4932 V 195.9998 h 12.5412 v -12.42874 h -12.5412 v -12.45687 h -12.43629 v 51.41411 c 0.21256,13.44494 11.09302,24.2685 24.52836,24.48518 v 0.0323 h 0.0528 c 13.43876,0 24.41248,-10.66792 24.88011,-24.00793 z"
           fill="#696a6d"
           id="path19"
           style="stroke-width:0.685687" />
        <path
           d="m 439.29123,226.15465 v -23.0706 c 0.25234,-3.63277 1.30762,-6.56476 4.09698,-7.90665 l -2.98616,-12.11951 c -3.67322,1.22738 -6.6059,3.41952 -8.76511,6.33574 -4.47755,-4.24096 -10.56782,-6.83011 -17.28068,-6.8308 -0.005,0 -0.0829,-0.007 -0.0829,-0.007 -8.65199,0.0185 -16.28915,4.43091 -20.75915,11.12869 -2.54869,3.82133 -4.06474,8.38525 -4.14565,13.30985 v 5.7961 h 12.45891 v -5.31885 -0.007 c 0,-5.9497 4.15663,-10.91476 9.72509,-12.17983 0.88454,-0.19818 1.78896,-0.31406 2.72561,-0.3168 0,0 0.0734,0.003 0.0781,0.003 6.88498,0 12.43972,5.2599 12.46235,12.14488 h 10e-4 v 15.01104 h -10e-4 c -0.0226,6.88017 -5.57737,12.13527 -12.46235,12.13527 -0.005,0 -0.0781,0.005 -0.0781,0.005 -0.93665,-0.005 -1.84107,-0.11933 -2.72561,-0.31815 -2.83119,-0.63769 -5.30514,-2.2477 -7.05023,-4.45149 -0.1913,1.03127 -1.42485,6.41322 -6.04706,11.35428 -0.0233,0.0301 -0.0459,0.0562 -0.0754,0.0884 4.32119,3.5738 9.85125,5.72891 15.89351,5.744 0,0 0.0781,-0.0107 0.0829,-0.0107 6.71286,0 12.80313,-2.58641 17.28068,-6.83697 2.15921,2.92581 5.09189,5.12138 8.76511,6.33848 l 2.98616,-12.11744 c -2.78936,-1.33914 -3.84464,-4.27732 -4.09698,-7.9046"
           fill="#00aeef"
           id="path21"
           style="stroke-width:0.685687" />
      </g>
    </g>
  </g>
</svg>
